<?xml version="1.0" standalone="no"?>
<!DOCTYPE svg PUBLIC "-//W3C//DTD SVG 20010904//EN"
 "http://www.w3.org/TR/2001/REC-SVG-20010904/DTD/svg10.dtd">
<svg version="1.0" xmlns="http://www.w3.org/2000/svg"
 width="920.000000pt" height="734.000000pt" viewBox="0 0 920.000000 734.000000"
 preserveAspectRatio="xMidYMid meet">

<g transform="translate(0.000000,734.000000) scale(0.100000,-0.100000)"
fill="#000000" stroke="none">
<path d="M3015 7038 c-33 -18 -45 -40 -45 -84 0 -56 7 -72 41 -89 43 -23 93
-19 126 9 24 21 28 32 28 76 0 44 -4 55 -28 76 -31 26 -86 32 -122 12z"/>
<path d="M3435 6815 c-102 -37 -123 -171 -38 -245 34 -30 40 -32 100 -28 55 3
68 8 95 35 26 26 32 41 36 89 3 42 0 66 -12 89 -32 59 -111 86 -181 60z"/>
<path d="M2819 6735 c-42 -23 -63 -64 -63 -121 0 -86 48 -136 132 -137 85 -1
142 54 142 138 0 79 -59 135 -140 135 -25 -1 -57 -7 -71 -15z"/>
<path d="M3182 6454 c-49 -25 -75 -69 -80 -135 -8 -106 45 -170 149 -177 104
-8 169 45 177 143 9 113 -44 177 -152 182 -43 3 -71 -1 -94 -13z"/>
<path d="M2620 6399 c-69 -28 -113 -100 -113 -184 0 -66 15 -105 60 -147 37
-35 73 -48 134 -48 92 0 166 53 189 136 38 136 -49 255 -186 253 -32 0 -70 -5
-84 -10z"/>
<path d="M4235 6315 c-102 -37 -123 -171 -38 -245 34 -30 40 -32 100 -28 55 3
68 8 95 35 26 26 32 41 36 89 3 42 0 66 -12 89 -32 59 -111 86 -181 60z"/>
<path d="M3635 6165 c-102 -37 -123 -171 -38 -245 34 -30 40 -32 100 -28 55 3
68 8 95 35 26 26 32 41 36 89 3 42 0 66 -12 89 -32 59 -111 86 -181 60z"/>
<path d="M2983 6095 c-136 -82 -116 -294 33 -351 91 -35 202 5 244 86 22 44
27 130 9 177 -14 38 -57 83 -96 99 -54 23 -141 18 -190 -11z"/>
<path d="M1411 6068 c-53 -27 -81 -75 -81 -136 0 -101 56 -157 157 -157 66 0
98 16 137 69 29 38 29 134 0 172 -54 73 -136 93 -213 52z"/>
<path d="M2364 5941 c-134 -61 -165 -257 -58 -365 48 -47 83 -60 159 -61 86 0
144 28 189 93 24 34 31 56 34 106 2 35 -1 81 -8 101 -16 49 -66 104 -115 126
-53 24 -147 24 -201 0z"/>
<path d="M1811 5768 c-53 -27 -81 -75 -81 -136 0 -101 56 -157 157 -157 66 0
98 16 137 69 29 38 29 134 0 172 -54 73 -136 93 -213 52z"/>
<path d="M3370 5757 c-51 -33 -73 -79 -73 -148 0 -106 65 -169 176 -169 97 0
159 60 165 163 3 53 0 67 -20 97 -39 58 -82 80 -153 80 -48 0 -70 -5 -95 -23z"/>
<path d="M1111 5618 c-53 -27 -81 -75 -81 -136 0 -101 56 -157 157 -157 66 0
98 16 137 69 29 38 29 134 0 172 -54 73 -136 93 -213 52z"/>
<path d="M2733 5595 c-136 -82 -116 -294 33 -351 91 -35 202 5 244 86 22 44
27 130 9 177 -14 38 -57 83 -96 99 -54 23 -141 18 -190 -11z"/>
<path d="M2149 5490 c-144 -76 -143 -291 0 -367 89 -47 216 -17 271 64 20 29
26 51 28 112 3 70 1 80 -26 122 -39 60 -97 89 -178 89 -38 -1 -72 -8 -95 -20z"/>
<path d="M3835 5465 c-102 -37 -123 -171 -38 -245 34 -30 40 -32 100 -28 55 3
68 8 95 35 26 26 32 41 36 89 3 42 0 66 -12 89 -32 59 -111 86 -181 60z"/>
<path d="M1511 5268 c-53 -27 -81 -75 -81 -136 0 -101 56 -157 157 -157 66 0
98 16 137 69 29 38 29 134 0 172 -54 73 -136 93 -213 52z"/>
<path d="M3120 5257 c-51 -33 -73 -79 -73 -148 0 -106 65 -169 176 -169 97 0
159 60 165 163 3 53 0 67 -20 97 -39 58 -82 80 -153 80 -48 0 -70 -5 -95 -23z"/>
<path d="M2529 5182 c-140 -73 -162 -266 -42 -371 95 -84 255 -74 326 21 42
56 50 80 50 148 0 180 -174 286 -334 202z"/>
<path d="M1832 4974 c-35 -17 -63 -41 -80 -67 -24 -36 -27 -50 -27 -128 0 -82
2 -89 31 -126 41 -51 86 -80 135 -88 90 -15 180 21 229 93 22 31 25 46 25 123
0 81 -2 90 -30 130 -39 54 -93 82 -170 87 -50 3 -69 -1 -113 -24z"/>
<path d="M1111 4768 c-53 -27 -81 -75 -81 -136 0 -101 56 -157 157 -157 66 0
98 16 137 69 29 38 29 134 0 172 -54 73 -136 93 -213 52z"/>
<path d="M2279 4632 c-140 -73 -162 -266 -42 -371 95 -84 255 -74 326 21 42
56 50 80 50 148 0 180 -174 286 -334 202z"/>
<path d="M411 4568 c-53 -27 -81 -75 -81 -136 0 -101 56 -157 157 -157 66 0
98 16 137 69 29 38 29 134 0 172 -54 73 -136 93 -213 52z"/>
<path d="M1601 4420 c-42 -10 -80 -38 -108 -80 -32 -46 -32 -137 -1 -192 54
-96 190 -116 280 -40 90 76 72 244 -32 297 -35 18 -99 25 -139 15z"/>
<path d="M2035 4047 c-57 -32 -85 -86 -85 -165 0 -69 13 -103 57 -144 36 -34
73 -48 129 -48 82 0 144 37 175 105 46 99 0 229 -94 264 -50 19 -138 13 -182
-12z"/>
<path d="M1311 3868 c-53 -27 -81 -75 -81 -136 0 -101 56 -157 157 -157 66 0
98 16 137 69 29 38 29 134 0 172 -54 73 -136 93 -213 52z"/>
<path d="M1811 3418 c-53 -27 -81 -75 -81 -136 0 -101 56 -157 157 -157 66 0
98 16 137 69 29 38 29 134 0 172 -54 73 -136 93 -213 52z"/>
<path d="M790 1660 l0 -1250 170 0 170 0 0 438 0 437 219 -3 c243 -3 294 4
406 60 211 104 334 302 379 610 25 164 21 290 -10 390 -77 247 -218 419 -431
530 l-74 38 -415 0 -414 0 0 -1250z m836 864 c80 -40 167 -121 203 -192 90
-176 57 -436 -70 -563 -23 -23 -66 -53 -98 -68 -55 -25 -61 -26 -293 -29
l-238 -3 0 445 0 446 212 0 212 0 72 -36z"/>
<path d="M2550 1660 l0 -1250 175 0 175 0 2 553 3 553 360 -553 360 -553 203
0 c117 0 202 4 202 9 0 5 -192 298 -426 651 -248 375 -423 648 -420 656 3 8
181 257 396 554 214 297 390 547 390 555 0 13 -28 15 -177 15 l-178 -1 -356
-508 -356 -509 -11 477 c-7 262 -15 504 -18 539 l-6 62 -159 0 -159 0 0 -1250z"/>
<path d="M6648 2493 l-3 -378 -35 0 -35 0 -5 235 c-5 226 -6 236 -28 268 -30
41 -51 52 -102 52 -51 0 -93 -37 -109 -96 -6 -22 -11 -129 -11 -251 l0 -213
-70 0 c-38 0 -70 2 -70 4 0 2 12 30 27 62 24 53 28 74 31 190 5 165 -10 227
-65 273 -36 30 -41 31 -139 31 -82 0 -104 -3 -115 -17 -11 -12 -14 -60 -13
-212 0 -205 -1 -194 49 -314 7 -16 2 -18 -61 -15 l-69 3 -3 278 -2 277 -45 0
-44 0 -3 -382 c-3 -345 -5 -386 -21 -415 l-18 -33 -699 0 -700 0 0 -710 0
-710 2330 0 2330 0 0 710 0 710 -1578 0 -1579 0 13 63 c8 34 14 72 14 83 0 21
5 22 118 24 64 2 128 3 142 3 285 -4 414 -2 426 8 9 7 19 7 34 -1 35 -18 119
-14 142 7 52 47 53 51 56 461 l3 382 -45 0 -46 0 -2 -377z m-523 44 c24 -20
27 -32 32 -104 9 -127 -28 -270 -75 -288 -20 -7 -66 45 -80 93 -13 41 -17 304
-5 315 3 4 28 7 54 7 35 0 55 -6 74 -23z m344 9 c8 -9 11 -77 9 -222 l-3 -209
-32 -3 -33 -3 0 213 c0 214 4 238 36 238 6 0 17 -6 23 -14z m-733 -777 c4 -8
9 -8 17 0 8 8 400 11 1353 11 l1342 0 -20 -37 c-13 -26 -17 -48 -13 -70 5 -26
2 -33 -10 -33 -8 0 -15 -9 -15 -20 0 -17 7 -20 45 -20 51 0 59 16 25 50 -11
11 -20 31 -20 45 0 14 9 34 20 45 11 11 20 25 20 30 0 6 78 10 215 10 l215 0
0 -650 0 -650 -2290 0 -2290 0 0 643 c0 354 3 647 7 650 12 12 1391 8 1399 -4z"/>
<path d="M6168 1198 l-3 -363 -30 -3 c-53 -6 -55 6 -55 286 l0 253 -37 -3 -38
-3 -5 -265 -5 -265 -82 -3 c-46 -2 -83 0 -83 3 0 3 9 23 20 45 70 137 40 332
-65 429 -111 102 -248 67 -325 -83 -34 -67 -35 -73 -35 -180 0 -83 4 -119 16
-141 9 -16 20 -40 24 -53 7 -23 6 -23 -62 -20 l-68 3 -5 265 -5 265 -37 3 -38
3 0 -253 c0 -291 0 -291 -70 -286 l-45 3 -5 265 -5 265 -37 3 -38 3 0 -251 c0
-154 -4 -259 -10 -271 -8 -14 -21 -19 -51 -19 -33 0 -41 4 -49 26 -6 14 -10
135 -10 270 l0 245 -37 -3 c-36 -3 -38 -4 -35 -35 4 -36 -8 -42 -29 -17 -38
46 -145 62 -206 31 -46 -24 -105 -97 -128 -158 -26 -71 -27 -203 -2 -276 41
-117 124 -183 230 -183 l57 0 0 50 0 50 -50 0 c-61 0 -100 19 -133 62 -76 102
-55 280 42 345 42 28 76 29 118 3 75 -45 103 -130 103 -312 0 -123 15 -173 57
-189 37 -14 126 -11 149 5 17 12 22 12 39 0 25 -18 135 -19 160 0 16 12 22 12
40 0 30 -19 690 -19 720 0 18 12 24 12 40 0 23 -17 85 -18 119 -2 14 6 35 30
46 53 19 39 20 61 20 403 l0 362 -40 0 -40 0 -2 -362z m-481 61 c45 -17 91
-69 109 -122 49 -147 -40 -318 -158 -304 -49 6 -82 32 -114 91 -67 122 -10
312 101 339 32 8 32 8 62 -4z"/>
<path d="M6340 1145 l0 -415 40 0 40 0 0 415 0 415 -40 0 -40 0 0 -415z"/>
<path d="M7640 1215 c0 -220 -4 -353 -10 -366 -12 -21 -50 -25 -68 -7 -9 9
-12 72 -12 220 0 221 -4 241 -49 282 -29 26 -103 26 -132 0 -44 -39 -49 -71
-49 -299 l0 -215 -28 0 c-51 0 -52 4 -52 283 l0 258 -37 -3 c-35 -3 -38 -6
-41 -35 l-3 -32 -44 31 c-38 27 -53 31 -104 31 -50 0 -67 -5 -100 -28 -83 -56
-131 -164 -131 -290 0 -123 42 -217 125 -281 30 -22 49 -28 110 -32 l75 -5 0
51 0 50 -63 4 c-76 5 -108 25 -142 92 -49 97 -28 238 44 299 77 65 152 41 205
-65 24 -48 26 -63 26 -177 0 -141 10 -192 46 -228 24 -24 27 -24 157 -19 155
6 113 6 410 0 191 -4 244 -2 266 9 24 12 31 12 46 0 23 -16 115 -17 149 -1 14
6 35 30 46 53 19 38 20 61 20 308 l0 267 -40 0 -40 0 0 -254 c0 -140 -3 -261
-6 -270 -8 -20 -86 -22 -102 -3 -5 6 -12 86 -14 177 -3 146 -7 171 -27 217
-46 104 -134 153 -209 116 -40 -20 -90 -93 -120 -176 l-17 -48 -5 213 -5 213
-37 3 -38 3 0 -346z m-181 31 c8 -9 11 -74 9 -212 l-3 -199 -32 -3 -33 -3 0
203 c0 204 4 228 36 228 6 0 17 -6 23 -14z m510 -15 c15 -16 33 -47 39 -69 16
-53 16 -304 0 -320 -8 -8 -55 -12 -145 -12 -129 0 -134 1 -142 23 -15 41 62
272 120 361 27 40 35 46 66 46 26 0 42 -8 62 -29z"/>
<path d="M8390 1170 l0 -390 40 0 40 0 0 390 0 390 -40 0 -40 0 0 -390z"/>
<path d="M8545 1548 c-3 -7 -6 -202 -7 -433 -3 -417 -3 -420 -24 -423 -11 -2
-27 4 -34 13 -7 9 -28 15 -51 15 -38 0 -39 -1 -33 -27 16 -68 53 -103 110
-103 37 0 51 6 74 29 16 16 32 41 35 57 12 52 13 54 55 54 51 0 93 37 109 97
8 27 10 159 9 385 l-3 343 -37 3 -38 3 0 -346 c0 -220 -4 -353 -10 -366 -6
-11 -21 -19 -35 -19 -14 0 -29 8 -35 19 -6 13 -10 146 -10 365 l0 346 -35 0
c-20 0 -38 -6 -40 -12z"/>
<path d="M5573 1518 c-19 -24 -22 -48 -11 -73 16 -35 55 -34 68 1 18 47 -29
107 -57 72z"/>
<path d="M5667 1512 c-42 -46 8 -123 51 -80 17 17 15 64 -4 82 -20 20 -27 20
-47 -2z"/>
<path d="M5946 1504 c-30 -30 -14 -84 25 -84 33 0 41 73 10 90 -15 7 -23 6
-35 -6z"/>
<path d="M7886 1504 c-30 -30 -14 -84 25 -84 33 0 41 73 10 90 -15 7 -23 6
-35 -6z"/>
<path d="M8177 1508 c-18 -10 -23 -54 -8 -76 11 -17 41 -12 54 9 12 19 2 65
-16 72 -7 3 -21 1 -30 -5z"/>
<path d="M4627 1503 c-10 -9 -8 -55 2 -71 5 -8 16 -12 26 -10 44 8 46 88 1 88
-12 0 -26 -3 -29 -7z"/>
<path d="M4714 1484 c-8 -33 6 -58 34 -62 16 -2 23 3 28 22 10 41 1 61 -28 64
-23 3 -29 -2 -34 -24z"/>
<path d="M5187 1503 c-10 -9 -8 -55 2 -71 5 -8 16 -12 26 -10 44 8 46 88 1 88
-12 0 -26 -3 -29 -7z"/>
<path d="M6024 1486 c-14 -56 46 -92 66 -40 13 34 -3 64 -35 64 -18 0 -26 -7
-31 -24z"/>
<path d="M6929 1489 c-15 -29 3 -69 31 -69 28 0 46 40 31 69 -7 11 -20 21 -31
21 -11 0 -24 -10 -31 -21z"/>
<path d="M7027 1503 c-10 -9 -8 -55 2 -71 5 -8 16 -12 26 -10 44 8 46 88 1 88
-12 0 -26 -3 -29 -7z"/>
<path d="M4970 649 c-16 -29 2 -69 30 -69 27 0 48 45 33 68 -16 26 -50 27 -63
1z"/>
<path d="M5059 649 c-8 -16 -8 -28 0 -45 14 -31 48 -31 62 0 14 30 -3 66 -31
66 -11 0 -24 -10 -31 -21z"/>
<path d="M6850 2440 l0 -430 40 0 40 0 0 430 0 430 -40 0 -40 0 0 -430z"/>
<path d="M5302 2828 c-13 -13 -16 -56 -6 -82 7 -19 45 -21 62 -4 7 7 12 26 12
43 0 34 -15 55 -40 55 -9 0 -21 -5 -28 -12z"/>
<path d="M8003 2828 c-32 -41 -19 -98 21 -98 42 0 62 63 30 94 -19 19 -38 20
-51 4z"/>
<path d="M8102 2828 c-15 -18 -17 -39 -9 -70 14 -53 77 -28 77 31 0 39 -46 65
-68 39z"/>
<path d="M4681 2816 c-7 -8 -11 -30 -9 -48 2 -26 8 -34 27 -36 27 -4 41 12 41
49 0 43 -35 64 -59 35z"/>
<path d="M4768 2806 c-16 -36 3 -79 34 -74 31 4 44 31 32 65 -13 38 -50 43
-66 9z"/>
<path d="M7428 2805 c-15 -33 3 -75 32 -75 29 0 47 42 32 75 -7 15 -20 25 -32
25 -12 0 -25 -10 -32 -25z"/>
<path d="M7532 2818 c-14 -14 -16 -57 -3 -76 12 -20 53 -10 62 14 15 43 -30
91 -59 62z"/>
<path d="M4672 2653 c-49 -24 -107 -95 -133 -166 -32 -85 -32 -217 0 -298 26
-67 92 -146 138 -165 18 -8 62 -14 98 -14 l65 0 0 50 0 50 -50 0 c-69 0 -113
21 -149 70 -87 120 -41 335 79 371 72 22 132 -15 170 -103 20 -45 24 -77 29
-213 7 -179 17 -208 75 -222 17 -5 119 -6 226 -3 l196 5 42 33 c28 23 53 57
79 110 37 73 38 80 38 181 0 95 -3 112 -29 168 -30 65 -95 136 -142 153 -74
29 -176 1 -229 -62 -56 -66 -79 -134 -83 -244 -4 -90 -1 -107 22 -165 14 -36
26 -69 26 -72 0 -12 -116 -7 -128 5 -9 9 -12 85 -12 280 l0 268 -40 0 c-38 0
-40 -2 -40 -29 0 -17 -4 -33 -10 -36 -5 -3 -10 -2 -10 3 0 6 -20 22 -44 36
-53 31 -132 35 -184 9z m718 -105 c36 -19 51 -35 75 -82 64 -126 24 -291 -82
-341 -107 -51 -213 54 -213 212 0 109 40 185 115 219 41 18 54 17 105 -8z"/>
<path d="M7420 2649 c-102 -62 -156 -187 -148 -341 7 -113 45 -198 115 -255
43 -36 51 -38 125 -42 l78 -3 0 51 0 51 -52 0 c-120 0 -197 102 -186 244 6 70
32 128 78 171 26 25 40 30 80 30 40 0 54 -5 80 -30 63 -60 73 -94 80 -270 11
-255 2 -248 271 -246 227 2 244 6 301 69 61 68 81 122 85 242 4 90 2 113 -17
163 -47 124 -122 187 -225 187 -64 0 -84 -9 -143 -64 -77 -71 -116 -211 -94
-337 7 -38 21 -88 32 -109 11 -22 20 -42 20 -45 0 -3 -29 -5 -65 -5 -61 0 -66
2 -75 26 -6 14 -10 139 -10 280 l0 254 -40 0 c-39 0 -40 -1 -40 -37 l0 -36
-22 20 c-62 57 -163 71 -228 32z m707 -90 c71 -27 123 -117 123 -215 0 -71
-13 -116 -48 -162 -63 -86 -151 -94 -218 -20 -100 109 -73 332 47 391 40 20
58 21 96 6z"/>
<path d="M8510 2616 c0 -52 1 -54 30 -60 17 -3 44 -20 60 -38 49 -54 61 -107
58 -264 l-3 -139 -103 -3 -103 -3 3 -52 3 -52 70 -3 c198 -9 233 36 223 292
-6 144 -26 220 -74 283 -37 48 -102 93 -136 93 -27 0 -28 -1 -28 -54z"/>
<path d="M2161 718 c-53 -27 -81 -75 -81 -136 0 -101 56 -157 157 -157 66 0
98 16 137 69 29 38 29 134 0 172 -54 73 -136 93 -213 52z"/>
</g>
</svg>
